<svg xmlns="http://www.w3.org/2000/svg" xmlns:xlink="http://www.w3.org/1999/xlink" zoomAndPan="magnify" preserveAspectRatio="xMidYMid meet" version="1.0" viewBox="36.73 136.86 301.42 80.52"><defs><g/></defs><g fill="#ffffff" fill-opacity="1"><g transform="translate(35.855787, 194.351383)"><g><path d="M 43.9375 -26.984375 L 39.25 -25.796875 C 40.070312 -23.492188 40.625 -21.0625 40.90625 -18.5 C 41.1875 -15.945312 41.191406 -13.429688 40.921875 -10.953125 C 40.660156 -8.484375 40.109375 -6.207031 39.265625 -4.125 C 38.429688 -2.039062 37.3125 -0.304688 35.90625 1.078125 C 34.5 2.472656 32.820312 3.34375 30.875 3.6875 C 28.789062 3.25 26.984375 2.3125 25.453125 0.875 C 23.921875 -0.5625 22.554688 -2.082031 21.359375 -3.6875 C 20.878906 -1.957031 20.046875 -0.382812 18.859375 1.03125 C 17.679688 2.457031 16.160156 3.34375 14.296875 3.6875 C 11.867188 3.15625 9.707031 2.1875 7.8125 0.78125 C 5.914062 -0.625 4.375 -2.359375 3.1875 -4.421875 C 2.007812 -6.492188 1.273438 -8.765625 0.984375 -11.234375 C 0.703125 -13.710938 0.941406 -16.28125 1.703125 -18.9375 L 9.984375 -18.9375 C 9.484375 -17.582031 9.238281 -16.09375 9.25 -14.46875 C 9.269531 -12.84375 9.484375 -11.265625 9.890625 -9.734375 C 10.304688 -8.203125 10.890625 -6.859375 11.640625 -5.703125 C 12.398438 -4.554688 13.269531 -3.773438 14.25 -3.359375 C 15.570312 -4.273438 16.421875 -5.6875 16.796875 -7.59375 C 17.179688 -9.507812 17.40625 -11.710938 17.46875 -14.203125 L 17.5625 -14.203125 L 24.484375 -14.90625 C 24.515625 -13.457031 24.875 -12.019531 25.5625 -10.59375 C 26.257812 -9.175781 27.113281 -7.929688 28.125 -6.859375 C 29.132812 -5.785156 30.144531 -5.03125 31.15625 -4.59375 C 32.257812 -5.351562 33.0625 -6.476562 33.5625 -7.96875 C 34.070312 -9.46875 34.328125 -11.171875 34.328125 -13.078125 C 34.328125 -14.992188 34.097656 -16.992188 33.640625 -19.078125 C 33.179688 -21.160156 32.53125 -23.171875 31.6875 -25.109375 C 30.851562 -27.054688 29.851562 -28.785156 28.6875 -30.296875 C 30.457031 -30.867188 32.414062 -31.644531 34.5625 -32.625 C 36.707031 -33.601562 39.296875 -34.785156 42.328125 -36.171875 Z M 43.9375 -26.984375 "/></g></g></g><g fill="#ffffff" fill-opacity="1"><g transform="translate(80.730211, 194.351383)"><g><path d="M 25 -10.609375 C 25 -8.773438 24.484375 -7.046875 23.453125 -5.421875 C 22.429688 -3.796875 21.023438 -2.476562 19.234375 -1.46875 C 17.453125 -0.457031 15.410156 0.0625 13.109375 0.09375 C 13.078125 0.09375 13.050781 0.078125 13.03125 0.046875 C 13.019531 0.015625 13.015625 0 13.015625 0 C 12.984375 0 12.96875 0.015625 12.96875 0.046875 C 12.96875 0.078125 12.96875 0.09375 12.96875 0.09375 C 11.457031 0.09375 9.984375 -0.164062 8.546875 -0.6875 C 7.109375 -1.207031 5.820312 -1.941406 4.6875 -2.890625 C 3.550781 -3.835938 2.644531 -4.960938 1.96875 -6.265625 C 1.289062 -7.578125 0.953125 -9.023438 0.953125 -10.609375 C 0.953125 -12.503906 1.472656 -14.25 2.515625 -15.84375 C 3.554688 -17.4375 4.984375 -18.710938 6.796875 -19.671875 C 8.609375 -20.628906 10.664062 -21.109375 12.96875 -21.109375 L 13.015625 -21.109375 C 13.015625 -21.109375 13.03125 -21.109375 13.0625 -21.109375 C 13.09375 -21.109375 13.109375 -21.109375 13.109375 -21.109375 C 15.285156 -21.109375 17.273438 -20.648438 19.078125 -19.734375 C 20.878906 -18.828125 22.316406 -17.582031 23.390625 -16 C 24.460938 -14.425781 25 -12.628906 25 -10.609375 Z M 13.015625 -6.71875 C 14.410156 -6.71875 15.5 -7.070312 16.28125 -7.78125 C 17.070312 -8.5 17.484375 -9.441406 17.515625 -10.609375 C 17.515625 -11.710938 17.113281 -12.609375 16.3125 -13.296875 C 15.507812 -13.992188 14.410156 -14.34375 13.015625 -14.34375 C 11.628906 -14.34375 10.523438 -13.992188 9.703125 -13.296875 C 8.878906 -12.609375 8.46875 -11.710938 8.46875 -10.609375 C 8.46875 -9.472656 8.878906 -8.539062 9.703125 -7.8125 C 10.523438 -7.082031 11.628906 -6.71875 13.015625 -6.71875 Z M 13.015625 -6.71875 "/></g></g></g><g fill="#ffffff" fill-opacity="1"><g transform="translate(107.04897, 194.351383)"><g><path d="M 19.9375 -22.015625 C 22.050781 -22.015625 23.710938 -21.328125 24.921875 -19.953125 C 26.140625 -18.578125 26.921875 -16.742188 27.265625 -14.453125 C 27.617188 -12.171875 27.523438 -9.640625 26.984375 -6.859375 L 17.9375 -6.859375 C 18.289062 -8.253906 18.484375 -9.503906 18.515625 -10.609375 C 18.546875 -11.710938 18.367188 -12.585938 17.984375 -13.234375 C 17.609375 -13.878906 16.945312 -14.203125 16 -14.203125 C 14.675781 -14.203125 13.515625 -13.71875 12.515625 -12.75 C 11.523438 -11.789062 10.757812 -10.535156 10.21875 -8.984375 C 9.6875 -7.441406 9.46875 -5.804688 9.5625 -4.078125 C 9.875 -2.492188 10.300781 -0.863281 10.84375 0.8125 L 3.828125 0.8125 C 2.378906 -3.488281 1.445312 -7.59375 1.03125 -11.5 C 0.625 -15.414062 0.785156 -19.15625 1.515625 -22.71875 L 10.703125 -22.71875 C 10.285156 -21.644531 9.941406 -20.515625 9.671875 -19.328125 C 9.410156 -18.148438 9.203125 -16.929688 9.046875 -15.671875 C 10.054688 -17.535156 11.441406 -19.082031 13.203125 -20.3125 C 14.972656 -21.539062 17.21875 -22.109375 19.9375 -22.015625 Z M 19.9375 -22.015625 "/></g></g></g><g fill="#ffffff" fill-opacity="1"><g transform="translate(135.450504, 194.351383)"><g><path d="M 19.84375 -9.328125 C 20.1875 -7.910156 20.695312 -6.59375 21.375 -5.375 C 22.050781 -4.15625 22.976562 -2.929688 24.15625 -1.703125 C 25.34375 -0.472656 26.835938 0.878906 28.640625 2.359375 L 21.78125 9 C 20.800781 8.269531 19.796875 7.328125 18.765625 6.171875 C 17.742188 5.023438 16.773438 3.753906 15.859375 2.359375 C 14.941406 0.972656 14.148438 -0.4375 13.484375 -1.875 C 12.828125 -3.3125 12.363281 -4.675781 12.09375 -5.96875 C 11.820312 -7.257812 11.816406 -8.378906 12.078125 -9.328125 C 14.441406 -10.398438 16.066406 -11.367188 16.953125 -12.234375 C 17.835938 -13.109375 18.175781 -13.8125 17.96875 -14.34375 C 17.757812 -14.882812 17.179688 -15.15625 16.234375 -15.15625 C 14.816406 -15.15625 13.609375 -14.726562 12.609375 -13.875 C 11.617188 -13.019531 10.894531 -11.863281 10.4375 -10.40625 C 9.976562 -8.957031 9.8125 -7.335938 9.9375 -5.546875 C 10.0625 -4.660156 10.195312 -3.851562 10.34375 -3.125 C 10.488281 -2.394531 10.65625 -1.71875 10.84375 -1.09375 L 3.5 -1.09375 C 2.96875 -2.789062 2.535156 -4.976562 2.203125 -7.65625 C 1.867188 -10.34375 1.644531 -13.320312 1.53125 -16.59375 C 1.425781 -19.863281 1.421875 -23.269531 1.515625 -26.8125 C 1.609375 -30.363281 1.820312 -33.875 2.15625 -37.34375 C 2.488281 -40.820312 2.921875 -44.078125 3.453125 -47.109375 L 13.0625 -47.109375 C 12.375 -44.296875 11.769531 -41.234375 11.25 -37.921875 C 10.726562 -34.609375 10.316406 -31.222656 10.015625 -27.765625 C 9.710938 -24.304688 9.53125 -20.96875 9.46875 -17.75 C 10.507812 -19.332031 11.90625 -20.613281 13.65625 -21.59375 C 15.40625 -22.570312 17.578125 -23.03125 20.171875 -22.96875 C 21.367188 -22.96875 22.492188 -22.710938 23.546875 -22.203125 C 24.609375 -21.703125 25.445312 -21.015625 26.0625 -20.140625 C 26.675781 -19.273438 26.925781 -18.257812 26.8125 -17.09375 C 26.707031 -15.925781 26.109375 -14.6875 25.015625 -13.375 C 23.929688 -12.0625 22.207031 -10.710938 19.84375 -9.328125 Z M 19.84375 -9.328125 "/></g></g></g><g fill="#ffffff" fill-opacity="1"><g transform="translate(163.852045, 194.351383)"><g><path d="M 43.9375 -26.984375 L 39.25 -25.796875 C 40.070312 -23.492188 40.625 -21.0625 40.90625 -18.5 C 41.1875 -15.945312 41.191406 -13.429688 40.921875 -10.953125 C 40.660156 -8.484375 40.109375 -6.207031 39.265625 -4.125 C 38.429688 -2.039062 37.3125 -0.304688 35.90625 1.078125 C 34.5 2.472656 32.820312 3.34375 30.875 3.6875 C 28.789062 3.25 26.984375 2.3125 25.453125 0.875 C 23.921875 -0.5625 22.554688 -2.082031 21.359375 -3.6875 C 20.878906 -1.957031 20.046875 -0.382812 18.859375 1.03125 C 17.679688 2.457031 16.160156 3.34375 14.296875 3.6875 C 11.867188 3.15625 9.707031 2.1875 7.8125 0.78125 C 5.914062 -0.625 4.375 -2.359375 3.1875 -4.421875 C 2.007812 -6.492188 1.273438 -8.765625 0.984375 -11.234375 C 0.703125 -13.710938 0.941406 -16.28125 1.703125 -18.9375 L 9.984375 -18.9375 C 9.484375 -17.582031 9.238281 -16.09375 9.25 -14.46875 C 9.269531 -12.84375 9.484375 -11.265625 9.890625 -9.734375 C 10.304688 -8.203125 10.890625 -6.859375 11.640625 -5.703125 C 12.398438 -4.554688 13.269531 -3.773438 14.25 -3.359375 C 15.570312 -4.273438 16.421875 -5.6875 16.796875 -7.59375 C 17.179688 -9.507812 17.40625 -11.710938 17.46875 -14.203125 L 17.5625 -14.203125 L 24.484375 -14.90625 C 24.515625 -13.457031 24.875 -12.019531 25.5625 -10.59375 C 26.257812 -9.175781 27.113281 -7.929688 28.125 -6.859375 C 29.132812 -5.785156 30.144531 -5.03125 31.15625 -4.59375 C 32.257812 -5.351562 33.0625 -6.476562 33.5625 -7.96875 C 34.070312 -9.46875 34.328125 -11.171875 34.328125 -13.078125 C 34.328125 -14.992188 34.097656 -16.992188 33.640625 -19.078125 C 33.179688 -21.160156 32.53125 -23.171875 31.6875 -25.109375 C 30.851562 -27.054688 29.851562 -28.785156 28.6875 -30.296875 C 30.457031 -30.867188 32.414062 -31.644531 34.5625 -32.625 C 36.707031 -33.601562 39.296875 -34.785156 42.328125 -36.171875 Z M 43.9375 -26.984375 "/></g></g></g><g fill="#ffffff" fill-opacity="1"><g transform="translate(208.726464, 194.351383)"><g><path d="M 8.71875 -25 C 7.738281 -25 6.84375 -25.242188 6.03125 -25.734375 C 5.226562 -26.222656 4.582031 -26.875 4.09375 -27.6875 C 3.601562 -28.507812 3.359375 -29.410156 3.359375 -30.390625 C 3.359375 -31.398438 3.601562 -32.304688 4.09375 -33.109375 C 4.582031 -33.921875 5.226562 -34.570312 6.03125 -35.0625 C 6.84375 -35.550781 7.738281 -35.796875 8.71875 -35.796875 C 9.71875 -35.796875 10.617188 -35.550781 11.421875 -35.0625 C 12.234375 -34.570312 12.882812 -33.921875 13.375 -33.109375 C 13.863281 -32.304688 14.109375 -31.398438 14.109375 -30.390625 C 14.109375 -29.410156 13.863281 -28.507812 13.375 -27.6875 C 12.882812 -26.875 12.234375 -26.222656 11.421875 -25.734375 C 10.617188 -25.242188 9.71875 -25 8.71875 -25 Z M 2.3125 -2.9375 C 1.875 -5.84375 1.675781 -8.769531 1.71875 -11.71875 C 1.769531 -14.664062 1.984375 -17.925781 2.359375 -21.5 L 9.703125 -21.5 C 9.359375 -17.863281 9.359375 -14.535156 9.703125 -11.515625 C 10.046875 -8.503906 10.644531 -5.644531 11.5 -2.9375 Z M 2.3125 -2.9375 "/></g></g></g><g fill="#ffffff" fill-opacity="1"><g transform="translate(220.702439, 194.351383)"><g><path d="M 9.46875 -13.921875 C 9.34375 -11.203125 9.5 -8.804688 9.9375 -6.734375 C 10.382812 -4.671875 11.300781 -2.953125 12.6875 -1.578125 C 14.070312 -0.210938 16.09375 0.816406 18.75 1.515625 L 18.75 12.078125 C 15.175781 11.597656 12.210938 10.535156 9.859375 8.890625 C 7.515625 7.253906 5.703125 5.125 4.421875 2.5 C 3.148438 -0.113281 2.320312 -3.109375 1.9375 -6.484375 C 1.5625 -9.859375 1.546875 -13.535156 1.890625 -17.515625 C 1.984375 -18.617188 2.140625 -19.863281 2.359375 -21.25 C 2.585938 -22.644531 2.859375 -24.078125 3.171875 -25.546875 C 3.484375 -27.015625 3.84375 -28.410156 4.25 -29.734375 C 4.664062 -31.054688 5.097656 -32.191406 5.546875 -33.140625 L 13.96875 -33.140625 C 13.175781 -31.523438 12.429688 -29.601562 11.734375 -27.375 C 11.046875 -25.15625 10.523438 -22.988281 10.171875 -20.875 C 11.242188 -20.875 12.257812 -20.863281 13.21875 -20.84375 C 14.1875 -20.832031 14.992188 -20.816406 15.640625 -20.796875 C 16.296875 -20.785156 16.671875 -20.75 16.765625 -20.6875 L 16.765625 -13.921875 C 16.734375 -13.921875 16.664062 -13.925781 16.5625 -13.9375 C 16.46875 -13.957031 16.203125 -13.96875 15.765625 -13.96875 C 15.328125 -13.96875 14.617188 -13.957031 13.640625 -13.9375 C 12.660156 -13.925781 11.269531 -13.921875 9.46875 -13.921875 Z M 9.46875 -13.921875 "/></g></g></g><g fill="#ffffff" fill-opacity="1"><g transform="translate(237.554018, 194.351383)"><g><path d="M 20.171875 -22.015625 C 22.253906 -22.015625 23.863281 -21.40625 25 -20.1875 C 26.132812 -18.976562 26.84375 -17.335938 27.125 -15.265625 C 27.40625 -13.203125 27.300781 -10.875 26.8125 -8.28125 C 26.332031 -5.695312 25.5 -3.023438 24.3125 -0.265625 C 23.125 2.492188 21.648438 5.171875 19.890625 7.765625 L 10.171875 7.859375 C 11.085938 6.566406 11.992188 5.125 12.890625 3.53125 C 13.796875 1.9375 14.632812 0.320312 15.40625 -1.3125 C 16.175781 -2.957031 16.8125 -4.546875 17.3125 -6.078125 C 17.820312 -7.609375 18.140625 -8.988281 18.265625 -10.21875 C 18.398438 -11.457031 18.273438 -12.429688 17.890625 -13.140625 C 17.515625 -13.847656 16.804688 -14.203125 15.765625 -14.203125 C 14.117188 -14.203125 12.757812 -13.65625 11.6875 -12.5625 C 10.613281 -11.476562 9.9375 -10.097656 9.65625 -8.421875 C 9.78125 -6.972656 9.9375 -5.625 10.125 -4.375 C 10.320312 -3.132812 10.5625 -2.039062 10.84375 -1.09375 L 3.5 -1.09375 C 2.96875 -2.789062 2.535156 -4.976562 2.203125 -7.65625 C 1.867188 -10.34375 1.644531 -13.320312 1.53125 -16.59375 C 1.425781 -19.863281 1.421875 -23.269531 1.515625 -26.8125 C 1.609375 -30.363281 1.820312 -33.875 2.15625 -37.34375 C 2.488281 -40.820312 2.921875 -44.078125 3.453125 -47.109375 L 13.0625 -47.109375 C 12.375 -44.234375 11.769531 -41.09375 11.25 -37.6875 C 10.726562 -34.28125 10.316406 -30.804688 10.015625 -27.265625 C 9.710938 -23.734375 9.53125 -20.328125 9.46875 -17.046875 C 10.507812 -18.523438 11.894531 -19.738281 13.625 -20.6875 C 15.363281 -21.632812 17.546875 -22.078125 20.171875 -22.015625 Z M 20.171875 -22.015625 "/></g></g></g><g fill="#ffffff" fill-opacity="1"><g transform="translate(265.955559, 194.351383)"><g><path d="M 36.734375 -22.015625 C 38.535156 -22.015625 39.976562 -21.546875 41.0625 -20.609375 C 42.15625 -19.679688 42.921875 -18.410156 43.359375 -16.796875 C 43.804688 -15.191406 43.953125 -13.347656 43.796875 -11.265625 C 43.640625 -9.179688 43.203125 -6.972656 42.484375 -4.640625 C 41.773438 -2.304688 40.820312 0.046875 39.625 2.421875 L 30.0625 2.421875 C 31.101562 0.523438 32.035156 -1.398438 32.859375 -3.359375 C 33.679688 -5.316406 34.265625 -7.113281 34.609375 -8.75 C 34.953125 -10.394531 34.96875 -11.710938 34.65625 -12.703125 C 34.34375 -13.703125 33.566406 -14.203125 32.328125 -14.203125 C 30.941406 -14.203125 29.742188 -13.789062 28.734375 -12.96875 C 27.722656 -12.144531 27 -11.085938 26.5625 -9.796875 C 26.34375 -7.867188 25.882812 -5.851562 25.1875 -3.75 C 24.488281 -1.65625 23.601562 0.445312 22.53125 2.5625 L 12.96875 2.5625 C 14.007812 0.664062 14.941406 -1.265625 15.765625 -3.234375 C 16.585938 -5.210938 17.175781 -7.03125 17.53125 -8.6875 C 17.894531 -10.34375 17.921875 -11.675781 17.609375 -12.6875 C 17.296875 -13.695312 16.523438 -14.203125 15.296875 -14.203125 C 13.429688 -14.203125 11.9375 -13.515625 10.8125 -12.140625 C 9.695312 -10.765625 9.109375 -9.050781 9.046875 -7 C 9.203125 -6.0625 9.378906 -5.09375 9.578125 -4.09375 C 9.785156 -3.101562 10.050781 -2.101562 10.375 -1.09375 L 3.03125 -1.09375 C 1.707031 -5.382812 0.894531 -9.328125 0.59375 -12.921875 C 0.289062 -16.523438 0.582031 -20.109375 1.46875 -23.671875 L 11.078125 -23.671875 C 10.671875 -22.691406 10.304688 -21.671875 9.984375 -20.609375 C 9.671875 -19.554688 9.40625 -18.476562 9.1875 -17.375 C 10.257812 -18.789062 11.644531 -19.929688 13.34375 -20.796875 C 15.050781 -21.671875 17.164062 -22.078125 19.6875 -22.015625 C 21.394531 -22.015625 22.773438 -21.585938 23.828125 -20.734375 C 24.890625 -19.878906 25.675781 -18.726562 26.1875 -17.28125 C 27.226562 -18.726562 28.609375 -19.894531 30.328125 -20.78125 C 32.046875 -21.664062 34.179688 -22.078125 36.734375 -22.015625 Z M 36.734375 -22.015625 "/></g></g></g><g fill="#ffffff" fill-opacity="1"><g transform="translate(310.735302, 194.351383)"><g><path d="M 16 -28.96875 C 18.65625 -28.96875 20.816406 -28.519531 22.484375 -27.625 C 24.160156 -26.726562 25.398438 -25.535156 26.203125 -24.046875 C 27.003906 -22.566406 27.40625 -20.910156 27.40625 -19.078125 C 27.40625 -16.992188 26.914062 -15.25 25.9375 -13.84375 C 24.96875 -12.4375 23.632812 -11.316406 21.9375 -10.484375 C 20.25 -9.648438 18.335938 -9.039062 16.203125 -8.65625 C 14.078125 -8.28125 11.878906 -8.09375 9.609375 -8.09375 C 8.128906 -8.09375 6.613281 -8.15625 5.0625 -8.28125 C 3.519531 -8.40625 1.988281 -8.582031 0.46875 -8.8125 L 0.46875 -16.90625 C 0.914062 -16.78125 1.351562 -16.660156 1.78125 -16.546875 C 2.207031 -16.429688 2.65625 -16.328125 3.125 -16.234375 C 3.28125 -18.703125 3.929688 -20.890625 5.078125 -22.796875 C 6.234375 -24.703125 7.75 -26.207031 9.625 -27.3125 C 11.507812 -28.414062 13.632812 -28.96875 16 -28.96875 Z M 12.6875 -14.90625 C 13.945312 -14.90625 15.097656 -15.03125 16.140625 -15.28125 C 17.179688 -15.539062 18.023438 -15.960938 18.671875 -16.546875 C 19.316406 -17.128906 19.640625 -17.910156 19.640625 -18.890625 C 19.640625 -19.867188 19.226562 -20.664062 18.40625 -21.28125 C 17.59375 -21.894531 16.648438 -22.203125 15.578125 -22.203125 C 14.503906 -22.203125 13.5625 -21.878906 12.75 -21.234375 C 11.945312 -20.585938 11.332031 -19.773438 10.90625 -18.796875 C 10.488281 -17.816406 10.28125 -16.820312 10.28125 -15.8125 C 10.28125 -15.6875 10.28125 -15.5625 10.28125 -15.4375 C 10.28125 -15.3125 10.296875 -15.171875 10.328125 -15.015625 C 10.734375 -14.972656 11.132812 -14.941406 11.53125 -14.921875 C 11.925781 -14.910156 12.3125 -14.90625 12.6875 -14.90625 Z M 11.359375 -7.046875 C 12.523438 -5.347656 13.984375 -3.945312 15.734375 -2.84375 C 17.492188 -1.738281 19.367188 -1.0625 21.359375 -0.8125 L 21.359375 8.421875 C 18.421875 8.109375 15.726562 7.203125 13.28125 5.703125 C 10.832031 4.203125 8.769531 2.304688 7.09375 0.015625 C 5.425781 -2.265625 4.226562 -4.75 3.5 -7.4375 C 4.757812 -7.28125 5.804688 -7.160156 6.640625 -7.078125 C 7.484375 -6.992188 8.269531 -6.953125 9 -6.953125 C 9.375 -6.953125 9.757812 -6.957031 10.15625 -6.96875 C 10.550781 -6.988281 10.953125 -7.015625 11.359375 -7.046875 Z M 11.359375 -7.046875 "/></g></g></g><g fill="#ffffff" fill-opacity="1"><g transform="translate(152.265807, 143.515567)"><g><path d="M 2.859375 0.09375 C 2.347656 0.09375 1.90625 -0.0078125 1.53125 -0.21875 C 1.15625 -0.4375 0.863281 -0.726562 0.65625 -1.09375 C 0.457031 -1.457031 0.359375 -1.875 0.359375 -2.34375 C 0.359375 -2.882812 0.46875 -3.34375 0.6875 -3.71875 C 0.90625 -4.101562 1.191406 -4.394531 1.546875 -4.59375 C 1.898438 -4.800781 2.273438 -4.90625 2.671875 -4.90625 C 2.972656 -4.90625 3.257812 -4.84375 3.53125 -4.71875 C 3.8125 -4.59375 4.054688 -4.421875 4.265625 -4.203125 C 4.472656 -3.984375 4.640625 -3.726562 4.765625 -3.4375 C 4.890625 -3.144531 4.953125 -2.835938 4.953125 -2.515625 C 4.941406 -2.367188 4.878906 -2.25 4.765625 -2.15625 C 4.660156 -2.070312 4.539062 -2.03125 4.40625 -2.03125 L 0.96875 -2.03125 L 0.6875 -2.9375 L 4 -2.9375 L 3.796875 -2.75 L 3.796875 -3 C 3.785156 -3.175781 3.722656 -3.332031 3.609375 -3.46875 C 3.503906 -3.601562 3.367188 -3.710938 3.203125 -3.796875 C 3.035156 -3.878906 2.859375 -3.921875 2.671875 -3.921875 C 2.492188 -3.921875 2.328125 -3.894531 2.171875 -3.84375 C 2.015625 -3.789062 1.878906 -3.707031 1.765625 -3.59375 C 1.648438 -3.476562 1.554688 -3.328125 1.484375 -3.140625 C 1.421875 -2.953125 1.390625 -2.707031 1.390625 -2.40625 C 1.390625 -2.082031 1.457031 -1.804688 1.59375 -1.578125 C 1.726562 -1.359375 1.898438 -1.191406 2.109375 -1.078125 C 2.328125 -0.960938 2.554688 -0.90625 2.796875 -0.90625 C 3.015625 -0.90625 3.191406 -0.921875 3.328125 -0.953125 C 3.460938 -0.992188 3.566406 -1.035156 3.640625 -1.078125 C 3.722656 -1.128906 3.800781 -1.175781 3.875 -1.21875 C 3.976562 -1.269531 4.078125 -1.296875 4.171875 -1.296875 C 4.304688 -1.296875 4.414062 -1.25 4.5 -1.15625 C 4.59375 -1.070312 4.640625 -0.96875 4.640625 -0.84375 C 4.640625 -0.6875 4.554688 -0.539062 4.390625 -0.40625 C 4.234375 -0.269531 4.007812 -0.148438 3.71875 -0.046875 C 3.4375 0.046875 3.148438 0.09375 2.859375 0.09375 Z M 2.859375 0.09375 "/></g></g></g><g fill="#ffffff" fill-opacity="1"><g transform="translate(156.999838, 143.515567)"><g><path d="M 0.3125 -0.75 C 0.25 -0.832031 0.21875 -0.9375 0.21875 -1.0625 C 0.226562 -1.195312 0.304688 -1.3125 0.453125 -1.40625 C 0.554688 -1.46875 0.660156 -1.492188 0.765625 -1.484375 C 0.867188 -1.472656 0.972656 -1.421875 1.078125 -1.328125 C 1.253906 -1.148438 1.4375 -1.015625 1.625 -0.921875 C 1.820312 -0.828125 2.0625 -0.78125 2.34375 -0.78125 C 2.4375 -0.78125 2.535156 -0.789062 2.640625 -0.8125 C 2.753906 -0.832031 2.847656 -0.878906 2.921875 -0.953125 C 3.003906 -1.035156 3.046875 -1.15625 3.046875 -1.3125 C 3.046875 -1.4375 3 -1.535156 2.90625 -1.609375 C 2.820312 -1.691406 2.707031 -1.757812 2.5625 -1.8125 C 2.414062 -1.875 2.25 -1.925781 2.0625 -1.96875 C 1.882812 -2.019531 1.695312 -2.078125 1.5 -2.140625 C 1.300781 -2.210938 1.117188 -2.300781 0.953125 -2.40625 C 0.796875 -2.507812 0.664062 -2.648438 0.5625 -2.828125 C 0.457031 -3.003906 0.40625 -3.222656 0.40625 -3.484375 C 0.40625 -3.785156 0.488281 -4.039062 0.65625 -4.25 C 0.832031 -4.457031 1.050781 -4.617188 1.3125 -4.734375 C 1.582031 -4.847656 1.863281 -4.90625 2.15625 -4.90625 C 2.34375 -4.90625 2.535156 -4.878906 2.734375 -4.828125 C 2.941406 -4.785156 3.140625 -4.710938 3.328125 -4.609375 C 3.515625 -4.515625 3.671875 -4.390625 3.796875 -4.234375 C 3.859375 -4.140625 3.894531 -4.03125 3.90625 -3.90625 C 3.925781 -3.78125 3.875 -3.664062 3.75 -3.5625 C 3.65625 -3.488281 3.546875 -3.457031 3.421875 -3.46875 C 3.304688 -3.476562 3.207031 -3.519531 3.125 -3.59375 C 3.03125 -3.71875 2.894531 -3.816406 2.71875 -3.890625 C 2.550781 -3.972656 2.359375 -4.015625 2.140625 -4.015625 C 2.046875 -4.015625 1.945312 -4.003906 1.84375 -3.984375 C 1.738281 -3.960938 1.644531 -3.914062 1.5625 -3.84375 C 1.488281 -3.78125 1.453125 -3.675781 1.453125 -3.53125 C 1.453125 -3.394531 1.492188 -3.285156 1.578125 -3.203125 C 1.671875 -3.117188 1.789062 -3.050781 1.9375 -3 C 2.09375 -2.945312 2.257812 -2.898438 2.4375 -2.859375 C 2.613281 -2.804688 2.796875 -2.742188 2.984375 -2.671875 C 3.171875 -2.609375 3.34375 -2.523438 3.5 -2.421875 C 3.65625 -2.316406 3.78125 -2.175781 3.875 -2 C 3.96875 -1.832031 4.015625 -1.613281 4.015625 -1.34375 C 4.015625 -1.039062 3.925781 -0.78125 3.75 -0.5625 C 3.570312 -0.351562 3.347656 -0.191406 3.078125 -0.078125 C 2.804688 0.0351562 2.53125 0.09375 2.25 0.09375 C 1.894531 0.09375 1.539062 0.03125 1.1875 -0.09375 C 0.832031 -0.21875 0.539062 -0.4375 0.3125 -0.75 Z M 0.3125 -0.75 "/></g></g></g><g fill="#ffffff" fill-opacity="1"><g transform="translate(160.761864, 143.515567)"><g><path d="M 0.640625 -4.71875 L 2.765625 -4.71875 C 2.910156 -4.71875 3.03125 -4.671875 3.125 -4.578125 C 3.226562 -4.484375 3.28125 -4.363281 3.28125 -4.21875 C 3.28125 -4.082031 3.226562 -3.96875 3.125 -3.875 C 3.03125 -3.78125 2.910156 -3.734375 2.765625 -3.734375 L 0.640625 -3.734375 C 0.492188 -3.734375 0.375 -3.78125 0.28125 -3.875 C 0.1875 -3.96875 0.140625 -4.085938 0.140625 -4.234375 C 0.140625 -4.378906 0.1875 -4.492188 0.28125 -4.578125 C 0.375 -4.671875 0.492188 -4.71875 0.640625 -4.71875 Z M 1.609375 -5.84375 C 1.765625 -5.84375 1.890625 -5.789062 1.984375 -5.6875 C 2.085938 -5.582031 2.140625 -5.453125 2.140625 -5.296875 L 2.140625 -1.296875 C 2.140625 -1.210938 2.15625 -1.144531 2.1875 -1.09375 C 2.21875 -1.039062 2.257812 -1 2.3125 -0.96875 C 2.375 -0.945312 2.4375 -0.9375 2.5 -0.9375 C 2.570312 -0.9375 2.640625 -0.945312 2.703125 -0.96875 C 2.765625 -1 2.832031 -1.015625 2.90625 -1.015625 C 2.988281 -1.015625 3.0625 -0.972656 3.125 -0.890625 C 3.195312 -0.816406 3.234375 -0.710938 3.234375 -0.578125 C 3.234375 -0.410156 3.140625 -0.269531 2.953125 -0.15625 C 2.773438 -0.0507812 2.582031 0 2.375 0 C 2.25 0 2.109375 -0.0078125 1.953125 -0.03125 C 1.804688 -0.0507812 1.664062 -0.101562 1.53125 -0.1875 C 1.394531 -0.269531 1.28125 -0.394531 1.1875 -0.5625 C 1.09375 -0.726562 1.046875 -0.957031 1.046875 -1.25 L 1.046875 -5.296875 C 1.046875 -5.453125 1.097656 -5.582031 1.203125 -5.6875 C 1.316406 -5.789062 1.453125 -5.84375 1.609375 -5.84375 Z M 1.609375 -5.84375 "/></g></g></g><g fill="#ffffff" fill-opacity="1"><g transform="translate(163.866886, 143.515567)"><g><path d="M 4.53125 -6.65625 C 4.6875 -6.65625 4.8125 -6.601562 4.90625 -6.5 C 5.007812 -6.40625 5.0625 -6.273438 5.0625 -6.109375 L 5.0625 -0.546875 C 5.0625 -0.390625 5.007812 -0.257812 4.90625 -0.15625 C 4.8125 -0.0507812 4.6875 0 4.53125 0 C 4.375 0 4.242188 -0.0507812 4.140625 -0.15625 C 4.035156 -0.257812 3.984375 -0.390625 3.984375 -0.546875 L 3.984375 -0.984375 L 4.1875 -0.90625 C 4.1875 -0.832031 4.144531 -0.738281 4.0625 -0.625 C 3.976562 -0.507812 3.863281 -0.398438 3.71875 -0.296875 C 3.570312 -0.191406 3.398438 -0.0976562 3.203125 -0.015625 C 3.015625 0.0546875 2.804688 0.09375 2.578125 0.09375 C 2.160156 0.09375 1.78125 -0.0078125 1.4375 -0.21875 C 1.101562 -0.4375 0.835938 -0.734375 0.640625 -1.109375 C 0.453125 -1.484375 0.359375 -1.914062 0.359375 -2.40625 C 0.359375 -2.894531 0.453125 -3.328125 0.640625 -3.703125 C 0.835938 -4.078125 1.101562 -4.367188 1.4375 -4.578125 C 1.769531 -4.796875 2.132812 -4.90625 2.53125 -4.90625 C 2.789062 -4.90625 3.03125 -4.863281 3.25 -4.78125 C 3.46875 -4.707031 3.65625 -4.609375 3.8125 -4.484375 C 3.96875 -4.367188 4.085938 -4.25 4.171875 -4.125 C 4.265625 -4 4.3125 -3.894531 4.3125 -3.8125 L 3.984375 -3.703125 L 3.984375 -6.109375 C 3.984375 -6.265625 4.035156 -6.394531 4.140625 -6.5 C 4.242188 -6.601562 4.375 -6.65625 4.53125 -6.65625 Z M 2.703125 -0.90625 C 2.972656 -0.90625 3.207031 -0.96875 3.40625 -1.09375 C 3.601562 -1.226562 3.753906 -1.410156 3.859375 -1.640625 C 3.972656 -1.867188 4.03125 -2.125 4.03125 -2.40625 C 4.03125 -2.6875 3.972656 -2.941406 3.859375 -3.171875 C 3.753906 -3.398438 3.601562 -3.582031 3.40625 -3.71875 C 3.207031 -3.851562 2.972656 -3.921875 2.703125 -3.921875 C 2.453125 -3.921875 2.226562 -3.851562 2.03125 -3.71875 C 1.832031 -3.582031 1.675781 -3.398438 1.5625 -3.171875 C 1.445312 -2.941406 1.390625 -2.6875 1.390625 -2.40625 C 1.390625 -2.125 1.445312 -1.867188 1.5625 -1.640625 C 1.675781 -1.410156 1.832031 -1.226562 2.03125 -1.09375 C 2.226562 -0.96875 2.453125 -0.90625 2.703125 -0.90625 Z M 2.703125 -0.90625 "/></g></g></g><g fill="#ffffff" fill-opacity="1"><g transform="translate(160.249534, 217.283789)"><g><path d="M 2 -0.609375 C 2 -0.429688 1.9375 -0.285156 1.8125 -0.171875 C 1.6875 -0.0546875 1.539062 0 1.375 0 C 1.1875 0 1.035156 -0.0546875 0.921875 -0.171875 C 0.804688 -0.285156 0.75 -0.429688 0.75 -0.609375 L 0.75 -6.390625 C 0.75 -6.566406 0.804688 -6.710938 0.921875 -6.828125 C 1.046875 -6.941406 1.203125 -7 1.390625 -7 C 1.546875 -7 1.6875 -6.941406 1.8125 -6.828125 C 1.9375 -6.710938 2 -6.566406 2 -6.390625 Z M 2 -0.609375 "/></g></g></g><g fill="#ffffff" fill-opacity="1"><g transform="translate(162.358447, 217.283789)"><g><path d="M 3.125 0 C 2.9375 0 2.78125 -0.0546875 2.65625 -0.171875 C 2.539062 -0.285156 2.484375 -0.429688 2.484375 -0.609375 L 2.484375 -6.40625 L 3.78125 -6.40625 L 3.78125 -0.609375 C 3.78125 -0.429688 3.71875 -0.285156 3.59375 -0.171875 C 3.46875 -0.0546875 3.3125 0 3.125 0 Z M 0.90625 -5.84375 C 0.738281 -5.84375 0.59375 -5.894531 0.46875 -6 C 0.351562 -6.113281 0.296875 -6.257812 0.296875 -6.4375 C 0.296875 -6.601562 0.351562 -6.738281 0.46875 -6.84375 C 0.59375 -6.945312 0.738281 -7 0.90625 -7 L 5.34375 -7 C 5.519531 -7 5.664062 -6.945312 5.78125 -6.84375 C 5.894531 -6.738281 5.953125 -6.597656 5.953125 -6.421875 C 5.953125 -6.242188 5.894531 -6.101562 5.78125 -6 C 5.664062 -5.894531 5.519531 -5.84375 5.34375 -5.84375 Z M 0.90625 -5.84375 "/></g></g></g><g fill="#ffffff" fill-opacity="1"><g transform="translate(167.97597, 217.283789)"><g><path d="M 2.171875 -5.984375 C 2.171875 -5.765625 2.109375 -5.539062 1.984375 -5.3125 C 1.859375 -5.09375 1.695312 -4.910156 1.5 -4.765625 C 1.300781 -4.617188 1.09375 -4.546875 0.875 -4.546875 C 0.800781 -4.546875 0.722656 -4.570312 0.640625 -4.625 C 0.554688 -4.6875 0.515625 -4.789062 0.515625 -4.9375 C 0.515625 -5.09375 0.5625 -5.1875 0.65625 -5.21875 C 0.757812 -5.25 0.84375 -5.28125 0.90625 -5.3125 C 1 -5.351562 1.066406 -5.40625 1.109375 -5.46875 C 1.160156 -5.53125 1.1875 -5.609375 1.1875 -5.703125 C 1.1875 -5.773438 1.148438 -5.835938 1.078125 -5.890625 C 1.015625 -5.953125 0.925781 -5.984375 0.8125 -5.984375 C 0.769531 -5.984375 0.722656 -5.976562 0.671875 -5.96875 C 0.617188 -5.957031 0.570312 -5.941406 0.53125 -5.921875 C 0.46875 -5.953125 0.410156 -5.992188 0.359375 -6.046875 C 0.304688 -6.097656 0.28125 -6.179688 0.28125 -6.296875 C 0.28125 -6.492188 0.375 -6.664062 0.5625 -6.8125 C 0.75 -6.96875 0.972656 -7.046875 1.234375 -7.046875 C 1.515625 -7.046875 1.738281 -6.945312 1.90625 -6.75 C 2.082031 -6.5625 2.171875 -6.304688 2.171875 -5.984375 Z M 2.171875 -5.984375 "/></g></g></g><g fill="#ffffff" fill-opacity="1"><g transform="translate(170.084883, 217.283789)"><g><path d="M 3 0.09375 C 2.53125 0.09375 2.109375 0.0351562 1.734375 -0.078125 C 1.367188 -0.191406 1.015625 -0.394531 0.671875 -0.6875 C 0.585938 -0.757812 0.519531 -0.84375 0.46875 -0.9375 C 0.425781 -1.03125 0.40625 -1.125 0.40625 -1.21875 C 0.40625 -1.375 0.457031 -1.507812 0.5625 -1.625 C 0.675781 -1.738281 0.816406 -1.796875 0.984375 -1.796875 C 1.109375 -1.796875 1.21875 -1.757812 1.3125 -1.6875 C 1.570312 -1.476562 1.828125 -1.316406 2.078125 -1.203125 C 2.328125 -1.097656 2.632812 -1.046875 3 -1.046875 C 3.25 -1.046875 3.472656 -1.082031 3.671875 -1.15625 C 3.878906 -1.238281 4.046875 -1.34375 4.171875 -1.46875 C 4.304688 -1.601562 4.375 -1.753906 4.375 -1.921875 C 4.375 -2.117188 4.3125 -2.285156 4.1875 -2.421875 C 4.070312 -2.566406 3.890625 -2.6875 3.640625 -2.78125 C 3.390625 -2.882812 3.078125 -2.960938 2.703125 -3.015625 C 2.335938 -3.066406 2.019531 -3.144531 1.75 -3.25 C 1.476562 -3.363281 1.25 -3.503906 1.0625 -3.671875 C 0.882812 -3.847656 0.75 -4.050781 0.65625 -4.28125 C 0.5625 -4.507812 0.515625 -4.765625 0.515625 -5.046875 C 0.515625 -5.484375 0.625 -5.851562 0.84375 -6.15625 C 1.070312 -6.46875 1.375 -6.703125 1.75 -6.859375 C 2.125 -7.015625 2.546875 -7.09375 3.015625 -7.09375 C 3.441406 -7.09375 3.835938 -7.023438 4.203125 -6.890625 C 4.578125 -6.765625 4.882812 -6.601562 5.125 -6.40625 C 5.3125 -6.257812 5.40625 -6.082031 5.40625 -5.875 C 5.40625 -5.726562 5.347656 -5.59375 5.234375 -5.46875 C 5.117188 -5.351562 4.988281 -5.296875 4.84375 -5.296875 C 4.738281 -5.296875 4.644531 -5.328125 4.5625 -5.390625 C 4.457031 -5.484375 4.316406 -5.570312 4.140625 -5.65625 C 3.960938 -5.738281 3.769531 -5.804688 3.5625 -5.859375 C 3.363281 -5.921875 3.179688 -5.953125 3.015625 -5.953125 C 2.722656 -5.953125 2.476562 -5.914062 2.28125 -5.84375 C 2.082031 -5.769531 1.929688 -5.664062 1.828125 -5.53125 C 1.734375 -5.40625 1.6875 -5.257812 1.6875 -5.09375 C 1.6875 -4.894531 1.742188 -4.726562 1.859375 -4.59375 C 1.984375 -4.46875 2.15625 -4.367188 2.375 -4.296875 C 2.59375 -4.222656 2.851562 -4.15625 3.15625 -4.09375 C 3.5625 -4.019531 3.914062 -3.929688 4.21875 -3.828125 C 4.519531 -3.734375 4.769531 -3.601562 4.96875 -3.4375 C 5.164062 -3.28125 5.3125 -3.082031 5.40625 -2.84375 C 5.507812 -2.613281 5.5625 -2.328125 5.5625 -1.984375 C 5.5625 -1.554688 5.441406 -1.1875 5.203125 -0.875 C 4.960938 -0.5625 4.648438 -0.320312 4.265625 -0.15625 C 3.878906 0.0078125 3.457031 0.09375 3 0.09375 Z M 3 0.09375 "/></g></g></g><g fill="#ffffff" fill-opacity="1"><g transform="translate(175.412527, 217.283789)"><g/></g></g><g fill="#ffffff" fill-opacity="1"><g transform="translate(177.571416, 217.283789)"><g><path d="M 6.0625 -7 C 6.21875 -7 6.34375 -6.945312 6.4375 -6.84375 C 6.539062 -6.738281 6.59375 -6.601562 6.59375 -6.4375 L 6.59375 -0.609375 C 6.59375 -0.429688 6.535156 -0.285156 6.421875 -0.171875 C 6.304688 -0.0546875 6.160156 0 5.984375 0 C 5.898438 0 5.8125 -0.015625 5.71875 -0.046875 C 5.632812 -0.078125 5.566406 -0.117188 5.515625 -0.171875 L 1.59375 -5.15625 L 1.84375 -5.3125 L 1.84375 -0.5625 C 1.84375 -0.394531 1.789062 -0.257812 1.6875 -0.15625 C 1.59375 -0.0507812 1.460938 0 1.296875 0 C 1.128906 0 0.992188 -0.0507812 0.890625 -0.15625 C 0.796875 -0.257812 0.75 -0.394531 0.75 -0.5625 L 0.75 -6.390625 C 0.75 -6.566406 0.804688 -6.710938 0.921875 -6.828125 C 1.035156 -6.941406 1.179688 -7 1.359375 -7 C 1.453125 -7 1.546875 -6.976562 1.640625 -6.9375 C 1.742188 -6.90625 1.820312 -6.851562 1.875 -6.78125 L 5.6875 -1.921875 L 5.515625 -1.796875 L 5.515625 -6.4375 C 5.515625 -6.601562 5.5625 -6.738281 5.65625 -6.84375 C 5.757812 -6.945312 5.894531 -7 6.0625 -7 Z M 6.0625 -7 "/></g></g></g><g fill="#ffffff" fill-opacity="1"><g transform="translate(184.27852, 217.283789)"><g><path d="M 4.046875 0.09375 C 3.546875 0.09375 3.070312 0.00390625 2.625 -0.171875 C 2.1875 -0.359375 1.800781 -0.617188 1.46875 -0.953125 C 1.132812 -1.285156 0.875 -1.664062 0.6875 -2.09375 C 0.5 -2.53125 0.40625 -3 0.40625 -3.5 C 0.40625 -4 0.5 -4.460938 0.6875 -4.890625 C 0.875 -5.328125 1.132812 -5.710938 1.46875 -6.046875 C 1.800781 -6.378906 2.1875 -6.632812 2.625 -6.8125 C 3.070312 -7 3.546875 -7.09375 4.046875 -7.09375 C 4.359375 -7.09375 4.660156 -7.0625 4.953125 -7 C 5.253906 -6.9375 5.523438 -6.835938 5.765625 -6.703125 C 5.867188 -6.648438 5.941406 -6.578125 5.984375 -6.484375 C 6.035156 -6.390625 6.0625 -6.296875 6.0625 -6.203125 C 6.0625 -6.046875 6.007812 -5.90625 5.90625 -5.78125 C 5.800781 -5.65625 5.664062 -5.59375 5.5 -5.59375 C 5.445312 -5.59375 5.390625 -5.597656 5.328125 -5.609375 C 5.273438 -5.617188 5.222656 -5.640625 5.171875 -5.671875 C 5.003906 -5.742188 4.828125 -5.800781 4.640625 -5.84375 C 4.453125 -5.882812 4.253906 -5.90625 4.046875 -5.90625 C 3.617188 -5.90625 3.222656 -5.796875 2.859375 -5.578125 C 2.503906 -5.359375 2.222656 -5.066406 2.015625 -4.703125 C 1.804688 -4.335938 1.703125 -3.9375 1.703125 -3.5 C 1.703125 -3.0625 1.804688 -2.660156 2.015625 -2.296875 C 2.222656 -1.929688 2.503906 -1.640625 2.859375 -1.421875 C 3.222656 -1.203125 3.617188 -1.09375 4.046875 -1.09375 C 4.242188 -1.09375 4.460938 -1.113281 4.703125 -1.15625 C 4.941406 -1.195312 5.140625 -1.25 5.296875 -1.3125 L 5.203125 -1.015625 L 5.203125 -2.734375 L 5.375 -2.578125 L 4.265625 -2.578125 C 4.097656 -2.578125 3.953125 -2.632812 3.828125 -2.75 C 3.710938 -2.863281 3.65625 -3.007812 3.65625 -3.1875 C 3.65625 -3.351562 3.710938 -3.492188 3.828125 -3.609375 C 3.953125 -3.722656 4.097656 -3.78125 4.265625 -3.78125 L 5.90625 -3.78125 C 6.082031 -3.78125 6.226562 -3.722656 6.34375 -3.609375 C 6.457031 -3.492188 6.515625 -3.347656 6.515625 -3.171875 L 6.515625 -1.046875 C 6.515625 -0.910156 6.476562 -0.800781 6.40625 -0.71875 C 6.34375 -0.632812 6.273438 -0.566406 6.203125 -0.515625 C 5.890625 -0.328125 5.550781 -0.175781 5.1875 -0.0625 C 4.832031 0.0390625 4.453125 0.09375 4.046875 0.09375 Z M 4.046875 0.09375 "/></g></g></g><g fill="#ffffff" fill-opacity="1"><g transform="translate(190.59577, 217.283789)"><g><path d="M 5.71875 -7.015625 C 5.894531 -7.015625 6.035156 -6.953125 6.140625 -6.828125 C 6.242188 -6.710938 6.296875 -6.570312 6.296875 -6.40625 L 6.296875 -2.78125 C 6.296875 -2.226562 6.175781 -1.738281 5.9375 -1.3125 C 5.707031 -0.882812 5.382812 -0.550781 4.96875 -0.3125 C 4.550781 -0.0703125 4.070312 0.046875 3.53125 0.046875 C 2.976562 0.046875 2.492188 -0.0703125 2.078125 -0.3125 C 1.660156 -0.550781 1.332031 -0.882812 1.09375 -1.3125 C 0.863281 -1.738281 0.75 -2.226562 0.75 -2.78125 L 0.75 -6.40625 C 0.75 -6.570312 0.804688 -6.710938 0.921875 -6.828125 C 1.046875 -6.953125 1.203125 -7.015625 1.390625 -7.015625 C 1.546875 -7.015625 1.679688 -6.953125 1.796875 -6.828125 C 1.921875 -6.710938 1.984375 -6.570312 1.984375 -6.40625 L 1.984375 -2.78125 C 1.984375 -2.445312 2.054688 -2.15625 2.203125 -1.90625 C 2.347656 -1.664062 2.535156 -1.476562 2.765625 -1.34375 C 3.003906 -1.21875 3.257812 -1.15625 3.53125 -1.15625 C 3.8125 -1.15625 4.078125 -1.21875 4.328125 -1.34375 C 4.578125 -1.476562 4.773438 -1.664062 4.921875 -1.90625 C 5.078125 -2.15625 5.15625 -2.445312 5.15625 -2.78125 L 5.15625 -6.40625 C 5.15625 -6.570312 5.203125 -6.710938 5.296875 -6.828125 C 5.398438 -6.953125 5.539062 -7.015625 5.71875 -7.015625 Z M 5.71875 -7.015625 "/></g></g></g><g fill="#ffffff" fill-opacity="1"><g transform="translate(197.002982, 217.283789)"><g><path d="M 5.203125 -7.03125 C 5.359375 -7.03125 5.5 -6.972656 5.625 -6.859375 C 5.75 -6.742188 5.8125 -6.59375 5.8125 -6.40625 C 5.8125 -6.34375 5.800781 -6.28125 5.78125 -6.21875 C 5.769531 -6.15625 5.742188 -6.097656 5.703125 -6.046875 L 3.4375 -2.796875 L 3.609375 -3.484375 L 3.609375 -0.609375 C 3.609375 -0.429688 3.550781 -0.285156 3.4375 -0.171875 C 3.320312 -0.0546875 3.1875 0 3.03125 0 C 2.863281 0 2.722656 -0.0546875 2.609375 -0.171875 C 2.492188 -0.285156 2.4375 -0.429688 2.4375 -0.609375 L 2.4375 -3.40625 L 2.515625 -3.078125 L 0.34375 -5.953125 C 0.28125 -6.035156 0.234375 -6.113281 0.203125 -6.1875 C 0.179688 -6.269531 0.171875 -6.347656 0.171875 -6.421875 C 0.171875 -6.597656 0.238281 -6.742188 0.375 -6.859375 C 0.519531 -6.972656 0.664062 -7.03125 0.8125 -7.03125 C 1 -7.03125 1.160156 -6.9375 1.296875 -6.75 L 3.21875 -4.09375 L 2.9375 -4.140625 L 4.703125 -6.734375 C 4.847656 -6.929688 5.015625 -7.03125 5.203125 -7.03125 Z M 5.203125 -7.03125 "/></g></g></g><g fill="#ffffff" fill-opacity="1"><g transform="translate(202.320625, 217.283789)"><g><path d="M 1.359375 -7 L 4.703125 -7 C 4.878906 -7 5.023438 -6.941406 5.140625 -6.828125 C 5.253906 -6.722656 5.3125 -6.582031 5.3125 -6.40625 C 5.3125 -6.238281 5.253906 -6.101562 5.140625 -6 C 5.023438 -5.894531 4.878906 -5.84375 4.703125 -5.84375 L 1.90625 -5.84375 L 2 -6.015625 L 2 -4.0625 L 1.921875 -4.15625 L 4.265625 -4.15625 C 4.429688 -4.15625 4.570312 -4.097656 4.6875 -3.984375 C 4.8125 -3.867188 4.875 -3.726562 4.875 -3.5625 C 4.875 -3.394531 4.8125 -3.257812 4.6875 -3.15625 C 4.570312 -3.050781 4.429688 -3 4.265625 -3 L 1.953125 -3 L 2 -3.078125 L 2 -1.0625 L 1.921875 -1.15625 L 4.703125 -1.15625 C 4.878906 -1.15625 5.023438 -1.09375 5.140625 -0.96875 C 5.253906 -0.851562 5.3125 -0.71875 5.3125 -0.5625 C 5.3125 -0.394531 5.253906 -0.257812 5.140625 -0.15625 C 5.023438 -0.0507812 4.878906 0 4.703125 0 L 1.359375 0 C 1.179688 0 1.035156 -0.0546875 0.921875 -0.171875 C 0.804688 -0.285156 0.75 -0.429688 0.75 -0.609375 L 0.75 -6.390625 C 0.75 -6.566406 0.804688 -6.710938 0.921875 -6.828125 C 1.035156 -6.941406 1.179688 -7 1.359375 -7 Z M 1.359375 -7 "/></g></g></g><g fill="#ffffff" fill-opacity="1"><g transform="translate(207.398365, 217.283789)"><g><path d="M 6.0625 -7 C 6.21875 -7 6.34375 -6.945312 6.4375 -6.84375 C 6.539062 -6.738281 6.59375 -6.601562 6.59375 -6.4375 L 6.59375 -0.609375 C 6.59375 -0.429688 6.535156 -0.285156 6.421875 -0.171875 C 6.304688 -0.0546875 6.160156 0 5.984375 0 C 5.898438 0 5.8125 -0.015625 5.71875 -0.046875 C 5.632812 -0.078125 5.566406 -0.117188 5.515625 -0.171875 L 1.59375 -5.15625 L 1.84375 -5.3125 L 1.84375 -0.5625 C 1.84375 -0.394531 1.789062 -0.257812 1.6875 -0.15625 C 1.59375 -0.0507812 1.460938 0 1.296875 0 C 1.128906 0 0.992188 -0.0507812 0.890625 -0.15625 C 0.796875 -0.257812 0.75 -0.394531 0.75 -0.5625 L 0.75 -6.390625 C 0.75 -6.566406 0.804688 -6.710938 0.921875 -6.828125 C 1.035156 -6.941406 1.179688 -7 1.359375 -7 C 1.453125 -7 1.546875 -6.976562 1.640625 -6.9375 C 1.742188 -6.90625 1.820312 -6.851562 1.875 -6.78125 L 5.6875 -1.921875 L 5.515625 -1.796875 L 5.515625 -6.4375 C 5.515625 -6.601562 5.5625 -6.738281 5.65625 -6.84375 C 5.757812 -6.945312 5.894531 -7 6.0625 -7 Z M 6.0625 -7 "/></g></g></g><path stroke-linecap="round" transform="matrix(0.75, 0, 0, 0.75, 227.340532, 212.783789)" fill="none" stroke-linejoin="miter" d="M 1.999083 2.001823 L 144.8793 2.001823 " stroke="#ffffff" stroke-width="4" stroke-opacity="1" stroke-miterlimit="4"/><path stroke-linecap="round" transform="matrix(0.75, 0, 0, 0.75, 37.500002, 139.765568)" fill="none" stroke-linejoin="miter" d="M 1.999997 2.000077 L 144.880215 2.000077 " stroke="#ffffff" stroke-width="4" stroke-opacity="1" stroke-miterlimit="4"/></svg>